<?xml version="1.0" encoding="UTF-8"?>
<svg xmlns="http://www.w3.org/2000/svg" xmlns:xlink="http://www.w3.org/1999/xlink" width="50pt" height="50pt" viewBox="0 0 50 50" version="1.1">
<g id="surface1">
<path style=" stroke:none;fill-rule:nonzero;fill:#CEE1F4;fill-opacity:1;" d="M 43.148438 25.351563 C 43.148438 35.621094 34.824219 43.949219 24.550781 43.949219 C 14.277344 43.949219 5.949219 35.621094 5.949219 25.351563 C 5.949219 15.078125 14.277344 6.75 24.550781 6.75 C 34.824219 6.75 43.148438 15.078125 43.148438 25.351563 Z "/>
<path style=" stroke:none;fill-rule:nonzero;fill:#CE9065;fill-opacity:1;" d="M 30.949219 42.851563 C 30.851563 40.699219 30.699219 37.050781 30.699219 37.050781 C 30.5 36 30.050781 35.351563 29.050781 35.050781 L 28.898438 35 L 28.601563 34.898438 C 28 34.648438 24.300781 33.25 24.300781 33.25 C 24 33.199219 23.800781 33 23.699219 32.699219 C 23.601563 32.25 23.550781 31.75 23.601563 31.25 C 22.800781 31.550781 21.949219 31.75 21.101563 31.949219 C 20.148438 32.050781 18.101563 30.800781 18.101563 30.800781 C 18.101563 30.800781 18.050781 32.300781 18 32.648438 C 17.898438 32.949219 17.648438 33.148438 17.351563 33.199219 L 13.800781 34.5 C 13.398438 34.601563 13.050781 34.75 12.699219 34.949219 C 11.949219 35.449219 11.398438 36.148438 11.148438 37 C 11.148438 37 11.050781 37.550781 11 38.050781 C 16.050781 43.550781 23.949219 45.449219 30.949219 42.851563 Z "/>
<path style=" stroke:none;fill-rule:nonzero;fill:#FDFCEF;fill-opacity:1;" d="M 10.898438 38.050781 C 16 43.550781 23.898438 45.449219 30.949219 42.851563 C 30.851563 40.699219 30.699219 37.101563 30.699219 37.101563 C 30.5 36.050781 30.050781 35.398438 29.050781 35.101563 L 28.898438 35 L 28.601563 34.898438 C 28.199219 34.75 26.648438 34.148438 25.5 33.75 L 25.449219 33.75 C 24.199219 34.398438 22.398438 35.351563 20.800781 35.351563 C 19.199219 35.351563 17.5 34.5 16.148438 33.75 L 16 33.800781 L 13.800781 34.601563 C 13.398438 34.699219 13.050781 34.851563 12.699219 35.050781 C 11.949219 35.550781 11.398438 36.25 11.148438 37.101563 Z "/>
<path style=" stroke:none;fill-rule:nonzero;fill:#FFFFFF;fill-opacity:1;" d="M 10.351563 28.648438 C 10.351563 28.898438 10.148438 29.101563 9.898438 29.101563 C 9.652344 29.101563 9.449219 28.898438 9.449219 28.648438 C 9.449219 28.402344 9.652344 28.199219 9.898438 28.199219 C 10.148438 28.199219 10.351563 28.402344 10.351563 28.648438 Z "/>
<path style=" stroke:none;fill-rule:nonzero;fill:#FFFFFF;fill-opacity:1;" d="M 39.648438 16.300781 C 39.648438 16.492188 39.492188 16.648438 39.300781 16.648438 C 39.105469 16.648438 38.949219 16.492188 38.949219 16.300781 C 38.949219 16.105469 39.105469 15.949219 39.300781 15.949219 C 39.492188 15.949219 39.648438 16.105469 39.648438 16.300781 Z "/>
<path style=" stroke:none;fill-rule:nonzero;fill:#F1BC19;fill-opacity:1;" d="M 38.449219 6.851563 C 38.449219 7.097656 38.25 7.300781 38 7.300781 C 37.75 7.300781 37.550781 7.097656 37.550781 6.851563 C 37.550781 6.601563 37.75 6.398438 38 6.398438 C 38.25 6.398438 38.449219 6.601563 38.449219 6.851563 Z "/>
<path style=" stroke:none;fill-rule:nonzero;fill:#F1BC19;fill-opacity:1;" d="M 10.601563 32.5 C 10.601563 32.75 10.398438 32.949219 10.148438 32.949219 C 9.902344 32.949219 9.699219 32.75 9.699219 32.5 C 9.699219 32.25 9.902344 32.050781 10.148438 32.050781 C 10.398438 32.050781 10.601563 32.25 10.601563 32.5 Z "/>
<path style=" stroke:none;fill-rule:nonzero;fill:#F1BC19;fill-opacity:1;" d="M 42.699219 7.898438 C 42.699219 9.003906 41.804688 9.898438 40.699219 9.898438 C 39.59375 9.898438 38.699219 9.003906 38.699219 7.898438 C 38.699219 6.796875 39.59375 5.898438 40.699219 5.898438 C 41.804688 5.898438 42.699219 6.796875 42.699219 7.898438 Z "/>
<path style=" stroke:none;fill-rule:nonzero;fill:#CEE1F4;fill-opacity:1;" d="M 43.648438 12.398438 C 43.648438 12.925781 43.226563 13.351563 42.699219 13.351563 C 42.175781 13.351563 41.75 12.925781 41.75 12.398438 C 41.75 11.875 42.175781 11.449219 42.699219 11.449219 C 43.226563 11.449219 43.648438 11.875 43.648438 12.398438 Z "/>
<path style=" stroke:none;fill-rule:nonzero;fill:#FBCD59;fill-opacity:1;" d="M 39.148438 38.5 C 39.148438 39.023438 38.726563 39.449219 38.199219 39.449219 C 37.675781 39.449219 37.25 39.023438 37.25 38.5 C 37.25 37.976563 37.675781 37.550781 38.199219 37.550781 C 38.726563 37.550781 39.148438 37.976563 39.148438 38.5 Z "/>
<path style=" stroke:none;fill-rule:nonzero;fill:#FBCD59;fill-opacity:1;" d="M 8.800781 32.050781 C 8.800781 33.15625 7.90625 34.050781 6.800781 34.050781 C 5.695313 34.050781 4.800781 33.15625 4.800781 32.050781 C 4.800781 30.945313 5.695313 30.050781 6.800781 30.050781 C 7.90625 30.050781 8.800781 30.945313 8.800781 32.050781 Z "/>
<path style=" stroke:none;fill-rule:nonzero;fill:#CEE1F4;fill-opacity:1;" d="M 12.851563 44.050781 C 12.851563 44.574219 12.425781 45 11.898438 45 C 11.375 45 10.949219 44.574219 10.949219 44.050781 C 10.949219 43.523438 11.375 43.101563 11.898438 43.101563 C 12.425781 43.101563 12.851563 43.523438 12.851563 44.050781 Z "/>
<path style=" stroke:none;fill-rule:nonzero;fill:#FFFFFF;fill-opacity:1;" d="M 38.449219 15.550781 C 38.449219 16.046875 38.046875 16.449219 37.550781 16.449219 C 37.054688 16.449219 36.648438 16.046875 36.648438 15.550781 C 36.648438 15.054688 37.054688 14.648438 37.550781 14.648438 C 38.046875 14.648438 38.449219 15.054688 38.449219 15.550781 Z "/>
<path style=" stroke:none;fill-rule:nonzero;fill:#FFFFFF;fill-opacity:1;" d="M 9.898438 26 C 9.898438 26.691406 9.339844 27.25 8.648438 27.25 C 7.960938 27.25 7.398438 26.691406 7.398438 26 C 7.398438 25.308594 7.960938 24.75 8.648438 24.75 C 9.339844 24.75 9.898438 25.308594 9.898438 26 Z "/>
<path style=" stroke:none;fill-rule:nonzero;fill:#CBC9BC;fill-opacity:1;" d="M 27.300781 43.949219 C 27.199219 43.949219 27.148438 43.898438 27.148438 43.800781 L 27.148438 41.75 C 27.148438 41.648438 27.199219 41.601563 27.300781 41.601563 C 27.398438 41.601563 27.449219 41.648438 27.449219 41.75 L 27.449219 43.800781 C 27.449219 43.851563 27.351563 43.949219 27.300781 43.949219 Z "/>
<path style=" stroke:none;fill-rule:nonzero;fill:#DB9E71;fill-opacity:1;" d="M 26.898438 23.898438 L 26.699219 23.898438 C 26.199219 23.898438 26.101563 24.050781 26.101563 23.75 C 26.148438 23.25 26.050781 21.101563 26.050781 21 C 26.050781 18.800781 23.75 17 20.851563 16.851563 L 20.75 16.851563 C 17.851563 17 15.550781 18.800781 15.550781 21 C 15.550781 21.101563 15.5 23.25 15.5 23.75 C 15.5 24.050781 15.398438 23.851563 14.898438 23.898438 L 14.699219 23.898438 C 14.199219 23.898438 13.800781 24.199219 13.648438 24.699219 C 13.699219 24.75 13.949219 26.550781 14.351563 27.25 C 14.550781 27.648438 14.898438 27.699219 15.25 27.949219 C 15.398438 28.050781 15.5 28.25 15.550781 28.449219 C 15.800781 29.25 16.25 29.949219 16.898438 30.550781 C 17.199219 30.851563 19.449219 32.699219 20.800781 32.800781 C 22.5 32.75 24.398438 30.851563 24.699219 30.550781 C 25.351563 30 25.800781 29.300781 26.050781 28.5 C 26.101563 28.300781 26.199219 28.101563 26.351563 28 C 26.699219 27.75 27.050781 27.699219 27.25 27.300781 C 27.648438 26.601563 27.898438 24.75 27.949219 24.75 C 27.800781 24.25 27.351563 23.949219 26.898438 23.898438 Z "/>
<path style=" stroke:none;fill-rule:nonzero;fill:#512C2B;fill-opacity:1;" d="M 20.851563 27.398438 C 21.199219 27.398438 21.5 27.25 21.75 27 C 21.75 27 21.75 26.949219 21.75 26.898438 C 21.75 26.898438 21.699219 26.851563 21.699219 26.898438 C 21.25 27.300781 20.550781 27.300781 20.101563 26.898438 C 20.101563 26.898438 20.050781 26.898438 20.050781 26.898438 C 20.050781 26.898438 20.050781 26.898438 20 26.898438 C 20 26.898438 20 26.949219 20 27 C 20.199219 27.199219 20.5 27.351563 20.851563 27.398438 Z "/>
<path style=" stroke:none;fill-rule:nonzero;fill:#512C2B;fill-opacity:1;" d="M 19.75 22.800781 L 19.949219 22.398438 C 19 22.199219 18.050781 22.199219 17.101563 22.5 L 17.351563 22.898438 C 18.148438 22.648438 19 22.601563 19.75 22.800781 Z "/>
<path style=" stroke:none;fill-rule:nonzero;fill:#512C2B;fill-opacity:1;" d="M 24.300781 22.800781 L 24.5 22.398438 C 23.550781 22.199219 22.601563 22.199219 21.648438 22.5 L 21.898438 22.898438 C 22.75 22.648438 23.550781 22.601563 24.300781 22.800781 Z "/>
<path style=" stroke:none;fill-rule:nonzero;fill:#512C2B;fill-opacity:1;" d="M 18.449219 23.351563 C 18.25 23.351563 18.050781 23.5 17.949219 23.699219 L 18.050781 23.699219 C 18.25 23.699219 18.398438 23.851563 18.398438 24.050781 C 18.398438 24.25 18.25 24.398438 18.101563 24.398438 C 18.050781 24.398438 18 24.398438 17.949219 24.351563 C 18 24.648438 18.25 24.898438 18.550781 24.898438 C 19 24.800781 19.25 24.351563 19.148438 23.898438 C 19 23.699219 18.75 23.449219 18.449219 23.351563 Z "/>
<path style=" stroke:none;fill-rule:nonzero;fill:#512C2B;fill-opacity:1;" d="M 23.199219 23.351563 C 23 23.351563 22.851563 23.449219 22.75 23.601563 C 22.800781 23.601563 22.800781 23.601563 22.851563 23.601563 C 23.050781 23.601563 23.199219 23.75 23.199219 23.949219 C 23.199219 24.148438 23.050781 24.300781 22.851563 24.300781 C 22.75 24.300781 22.648438 24.25 22.601563 24.148438 C 22.550781 24.550781 22.851563 24.898438 23.199219 24.949219 C 23.648438 24.851563 23.898438 24.398438 23.800781 23.949219 C 23.75 23.699219 23.5 23.449219 23.199219 23.351563 Z "/>
<path style=" stroke:none;fill-rule:nonzero;fill:#512C2B;fill-opacity:1;" d="M 23.449219 28.300781 C 23.449219 28.300781 23.449219 28.25 23.449219 28.199219 C 23.449219 28.199219 23.398438 28.199219 23.351563 28.199219 C 22.601563 28.699219 21.699219 28.949219 20.800781 28.898438 C 19.898438 28.949219 19 28.699219 18.25 28.199219 C 18.25 28.199219 18.25 28.199219 18.199219 28.199219 C 18.199219 28.199219 18.148438 28.199219 18.148438 28.199219 C 18.148438 28.199219 18.148438 28.25 18.148438 28.300781 C 19.75 29.398438 21.851563 29.398438 23.449219 28.300781 Z "/>
<path style=" stroke:none;fill-rule:nonzero;fill:#512C2B;fill-opacity:1;" d="M 21.550781 30.898438 C 21.601563 30.898438 21.601563 30.851563 21.601563 30.800781 C 21.601563 30.75 21.601563 30.75 21.550781 30.699219 L 20.25 30.699219 C 20.199219 30.699219 20.199219 30.75 20.199219 30.800781 C 20.199219 30.851563 20.199219 30.851563 20.25 30.898438 Z "/>
<path style=" stroke:none;fill-rule:nonzero;fill:#895D3D;fill-opacity:1;" d="M 26.898438 26.300781 L 26.601563 26.25 L 26.699219 25.351563 L 26.199219 25.550781 L 26.101563 25.25 L 26.851563 24.949219 C 26.898438 24.949219 26.949219 24.949219 27 24.949219 C 27.050781 25 27.050781 25.050781 27.050781 25.101563 Z "/>
<path style=" stroke:none;fill-rule:nonzero;fill:#895D3D;fill-opacity:1;" d="M 14.851563 26.101563 L 14.75 25 C 14.75 24.949219 14.75 24.898438 14.800781 24.851563 C 14.851563 24.800781 14.898438 24.800781 14.949219 24.851563 L 15.699219 25.148438 L 15.601563 25.398438 L 15.101563 25.199219 L 15.199219 26.101563 Z "/>
<path style=" stroke:none;fill-rule:nonzero;fill:#472B29;fill-opacity:1;" d="M 15.550781 28.351563 C 15.5 28.351563 15.449219 28.300781 15.449219 28.25 L 15.550781 23.949219 C 15.550781 23.898438 15.601563 23.851563 15.648438 23.851563 C 15.699219 23.851563 15.75 23.898438 15.75 23.949219 L 15.648438 28.25 C 15.648438 28.300781 15.601563 28.351563 15.550781 28.351563 Z "/>
<path style=" stroke:none;fill-rule:nonzero;fill:#472B29;fill-opacity:1;" d="M 26.148438 28.351563 C 26.101563 28.351563 26.050781 28.300781 26.050781 28.25 L 26 23.949219 C 26 23.898438 26.050781 23.851563 26.101563 23.851563 C 26.148438 23.851563 26.199219 23.898438 26.199219 23.949219 L 26.300781 28.25 C 26.25 28.300781 26.199219 28.351563 26.148438 28.351563 Z "/>
<path style=" stroke:none;fill-rule:nonzero;fill:#472B29;fill-opacity:1;" d="M 20.898438 32.851563 C 19.851563 32.851563 18.050781 31.648438 18 31.601563 C 17.949219 31.550781 17.949219 31.5 17.949219 31.449219 C 18 31.398438 18.050781 31.398438 18.101563 31.398438 C 18.101563 31.398438 20.050781 32.699219 21 32.601563 C 21.949219 32.5 23.5 31.449219 23.5 31.449219 C 23.550781 31.398438 23.648438 31.449219 23.648438 31.5 C 23.699219 31.550781 23.648438 31.648438 23.601563 31.648438 C 23.550781 31.699219 22 32.699219 21 32.851563 C 20.949219 32.851563 20.949219 32.851563 20.898438 32.851563 Z "/>
<path style=" stroke:none;fill-rule:nonzero;fill:#472B29;fill-opacity:1;" d="M 24.5 44.199219 C 19.351563 44.199219 14.351563 42.101563 10.699219 38.148438 C 10.648438 38.101563 10.648438 38.050781 10.648438 37.949219 C 10.699219 37.699219 10.75 37.398438 10.851563 37.050781 C 11.050781 36.101563 11.648438 35.300781 12.550781 34.851563 C 12.898438 34.648438 13.300781 34.5 13.699219 34.398438 L 17.199219 33.101563 C 17.449219 33.050781 17.648438 32.898438 17.699219 32.648438 C 17.699219 32.5 17.75 32.050781 17.75 31.648438 C 17.398438 31.398438 17.050781 31.101563 16.699219 30.851563 C 16.050781 30.25 15.550781 29.550781 15.300781 28.699219 C 15.300781 28.5 15.199219 28.351563 15.101563 28.25 C 15 28.199219 14.898438 28.101563 14.800781 28.050781 C 14.550781 27.898438 14.300781 27.800781 14.148438 27.449219 C 13.75 26.601563 13.5 25.699219 13.449219 24.75 C 13.449219 24.75 13.449219 24.699219 13.449219 24.699219 C 13.601563 24.148438 14.101563 23.75 14.699219 23.75 L 14.898438 23.75 C 15.050781 23.75 15.199219 23.75 15.300781 23.75 C 15.25 23.25 15.300781 21.851563 15.351563 21.25 C 15.351563 21.101563 15.351563 21 15.351563 21 C 15.351563 18.648438 17.699219 16.75 20.75 16.648438 L 20.851563 16.648438 C 23.898438 16.75 26.25 18.648438 26.25 21 C 26.25 21 26.25 21.101563 26.25 21.25 C 26.25 21.851563 26.300781 23.25 26.300781 23.75 C 26.398438 23.75 26.5 23.699219 26.699219 23.699219 L 26.898438 23.699219 C 27.5 23.699219 27.949219 24.101563 28.148438 24.648438 C 28.148438 24.648438 28.148438 24.699219 28.148438 24.699219 C 28.050781 25.648438 27.851563 26.550781 27.449219 27.351563 C 27.25 27.699219 27.050781 27.800781 26.800781 27.949219 C 26.699219 28 26.601563 28.050781 26.5 28.148438 C 26.398438 28.25 26.300781 28.398438 26.300781 28.550781 C 26.050781 29.398438 25.550781 30.148438 24.898438 30.75 C 24.550781 31.050781 24.148438 31.351563 23.75 31.648438 C 23.75 32 23.800781 32.300781 23.898438 32.601563 C 24 32.800781 24.148438 32.949219 24.398438 33 C 24.550781 33.050781 28.101563 34.351563 28.75 34.648438 L 29.050781 34.75 C 29.101563 34.800781 29.148438 34.800781 29.199219 34.800781 C 30.25 35.101563 30.75 35.75 31 36.949219 C 31 37 31.148438 40.5 31.25 42.699219 C 31.25 42.800781 31.199219 42.851563 31.101563 42.898438 C 28.898438 43.800781 26.699219 44.199219 24.5 44.199219 Z M 11.101563 37.949219 C 16.148438 43.300781 23.851563 45.199219 30.75 42.699219 C 30.648438 40.550781 30.5 37.148438 30.5 37.148438 C 30.300781 36.101563 29.898438 35.601563 29 35.351563 C 28.949219 35.351563 28.851563 35.300781 28.800781 35.300781 L 28.5 35.148438 C 27.898438 34.898438 24.25 33.550781 24.199219 33.550781 C 23.898438 33.449219 23.601563 33.199219 23.449219 32.898438 C 23.300781 32.5 23.300781 32.101563 23.300781 31.648438 C 23.300781 31.601563 23.351563 31.550781 23.398438 31.5 C 23.800781 31.199219 24.199219 30.898438 24.550781 30.601563 C 25.148438 30.050781 25.601563 29.398438 25.800781 28.648438 C 25.800781 28.449219 25.949219 28.199219 26.148438 28.050781 C 26.300781 27.949219 26.398438 27.898438 26.5 27.800781 C 26.699219 27.699219 26.851563 27.601563 27 27.351563 C 27.351563 26.550781 27.601563 25.75 27.648438 24.851563 C 27.550781 24.5 27.199219 24.25 26.800781 24.25 L 26.601563 24.25 C 26.449219 24.25 26.351563 24.25 26.25 24.300781 C 26.101563 24.300781 26 24.351563 25.898438 24.25 C 25.800781 24.148438 25.800781 24 25.800781 23.949219 C 25.851563 23.550781 25.800781 22 25.75 21.449219 C 25.75 21.300781 25.75 21.199219 25.75 21.199219 C 25.75 19.050781 23.550781 17.351563 20.75 17.25 L 20.648438 17.25 C 17.851563 17.351563 15.648438 19.101563 15.648438 21.199219 C 15.648438 21.199219 15.648438 21.300781 15.648438 21.449219 C 15.648438 22 15.601563 23.550781 15.601563 23.949219 C 15.601563 24.101563 15.601563 24.199219 15.5 24.25 C 15.398438 24.351563 15.300781 24.300781 15.148438 24.300781 C 15.050781 24.300781 14.949219 24.25 14.800781 24.300781 L 14.601563 24.300781 C 14.199219 24.300781 13.898438 24.550781 13.75 24.898438 C 13.851563 25.75 14.050781 26.601563 14.398438 27.398438 C 14.5 27.601563 14.699219 27.699219 14.898438 27.800781 C 15 27.851563 15.148438 27.949219 15.25 28 C 15.449219 28.148438 15.601563 28.398438 15.601563 28.648438 C 15.851563 29.398438 16.25 30.050781 16.851563 30.601563 C 17.199219 30.898438 17.601563 31.199219 17.949219 31.449219 C 18 31.5 18.050781 31.550781 18.050781 31.601563 C 18.050781 32.050781 18 32.648438 17.949219 32.800781 C 17.800781 33.199219 17.5 33.449219 17.148438 33.5 L 13.648438 34.800781 C 13.25 34.898438 12.898438 35.050781 12.601563 35.25 C 11.800781 35.648438 11.300781 36.351563 11.101563 37.199219 C 11.199219 37.5 11.148438 37.75 11.101563 37.949219 Z "/>
<path style=" stroke:none;fill-rule:nonzero;fill:#FDFCEF;fill-opacity:1;" d="M 13.699219 40.449219 C 14.601563 41.050781 15.550781 41.550781 16.550781 41.949219 C 16.648438 42 16.699219 42.101563 16.648438 42.199219 C 17.5 42.351563 18.351563 42.800781 19.199219 43 C 20.351563 43.300781 21.5 43.648438 22.648438 43.851563 C 25.050781 44.25 27.5 44.050781 29.851563 43.351563 C 30.351563 43.148438 30.75 42.949219 31.101563 42.75 C 31 40.648438 30.800781 37.148438 30.800781 37.148438 C 30.601563 36.050781 30.148438 35.449219 29.148438 35.148438 C 29.101563 35.148438 29.050781 35.101563 29 35.101563 L 28.648438 35 C 28.25 34.851563 26.699219 34.25 25.550781 33.851563 L 25.5 33.851563 C 24.25 34.5 22.449219 35.449219 20.800781 35.449219 C 19.148438 35.449219 17.5 34.5 16.101563 33.800781 L 15.949219 33.851563 L 13.75 34.648438 C 13.351563 34.75 13 34.898438 12.648438 35.101563 C 11.898438 35.601563 11.351563 36.300781 11.050781 37.199219 C 11.050781 37.199219 11 37.699219 10.898438 38.148438 C 10.898438 38.148438 10.949219 38.199219 10.949219 38.199219 C 11.601563 39.101563 12.75 39.851563 13.699219 40.449219 Z "/>
<path style=" stroke:none;fill-rule:nonzero;fill:#A0C9F2;fill-opacity:1;" d="M 13.699219 40.449219 C 14.550781 41.101563 15.5 41.648438 16.449219 42.101563 L 16.648438 42.199219 C 17.5 42.351563 18.351563 42.949219 19.199219 43.199219 C 19.398438 43.25 19.648438 43.300781 19.851563 43.351563 C 18.949219 40.25 17.648438 34.949219 17.050781 33.449219 L 14.199219 34.5 L 13.449219 34.75 C 12.898438 34.898438 11.550781 35.851563 11.300781 36.351563 C 11.101563 36.898438 10.949219 37.5 10.898438 38.050781 C 10.949219 38.050781 10.949219 38.101563 10.949219 38.148438 C 11.601563 39.101563 12.75 39.851563 13.699219 40.449219 Z "/>
<path style=" stroke:none;fill-rule:nonzero;fill:#A0C9F2;fill-opacity:1;" d="M 22.648438 43.851563 C 25.5 44.300781 28.449219 43.949219 31.148438 42.851563 C 31.101563 42.148438 31 38.050781 30.5 36.351563 C 30.351563 35.851563 29.898438 35.449219 29.398438 35.300781 L 28.648438 35.050781 L 24.699219 33.550781 C 24.101563 35.5 22.699219 40.5 21.75 43.699219 C 22.050781 43.699219 22.300781 43.800781 22.648438 43.851563 Z "/>
<path style=" stroke:none;fill-rule:nonzero;fill:#78A0CF;fill-opacity:1;" d="M 27.351563 43.851563 C 27.25 43.851563 27.199219 43.75 27.199219 43.699219 L 27.199219 41.898438 C 27.199219 41.800781 27.300781 41.75 27.351563 41.75 C 27.398438 41.75 27.5 41.851563 27.5 41.898438 L 27.5 43.699219 C 27.5 43.75 27.449219 43.851563 27.351563 43.851563 Z "/>
<path style=" stroke:none;fill-rule:nonzero;fill:#78A0CF;fill-opacity:1;" d="M 20.101563 43.5 L 20.449219 43.398438 L 17.601563 33.25 L 16.601563 33.5 L 19.398438 43.398438 C 19.601563 43.398438 19.851563 43.449219 20.101563 43.5 Z "/>
<path style=" stroke:none;fill-rule:nonzero;fill:#78A0CF;fill-opacity:1;" d="M 22.25 43.800781 L 25.101563 33.699219 L 24.148438 33.398438 L 21.25 43.648438 C 21.550781 43.75 21.898438 43.75 22.25 43.800781 Z "/>
<path style=" stroke:none;fill-rule:nonzero;fill:#512C2B;fill-opacity:1;" d="M 20.851563 27.398438 C 21.199219 27.398438 21.5 27.25 21.75 27 C 21.75 27 21.75 26.949219 21.75 26.898438 C 21.75 26.898438 21.699219 26.898438 21.648438 26.898438 C 21.199219 27.300781 20.5 27.300781 20.050781 26.898438 C 20.050781 26.898438 20 26.898438 20 26.898438 C 20 26.898438 20 26.949219 20 27 C 20.199219 27.25 20.550781 27.398438 20.851563 27.398438 Z "/>
<path style=" stroke:none;fill-rule:nonzero;fill:#512C2B;fill-opacity:1;" d="M 19.800781 22.800781 L 20 22.398438 C 19.050781 22.199219 18.101563 22.199219 17.148438 22.5 L 17.398438 22.898438 C 18.199219 22.648438 19 22.601563 19.800781 22.800781 Z "/>
<path style=" stroke:none;fill-rule:nonzero;fill:#512C2B;fill-opacity:1;" d="M 24.351563 22.800781 L 24.550781 22.398438 C 23.601563 22.199219 22.648438 22.199219 21.699219 22.5 L 21.949219 22.898438 C 22.800781 22.648438 23.601563 22.601563 24.351563 22.800781 Z "/>
<path style=" stroke:none;fill-rule:nonzero;fill:#512C2B;fill-opacity:1;" d="M 15.949219 22.101563 C 16.199219 21 16.550781 20 17.101563 19 C 16.949219 18.75 16.601563 18.648438 16.351563 18.75 C 15.648438 20.050781 15.300781 21.5 15.300781 23 C 15.351563 23.699219 15.449219 24.351563 15.648438 25 C 15.75 24 15.699219 23.050781 15.949219 22.101563 Z "/>
<path style=" stroke:none;fill-rule:nonzero;fill:#512C2B;fill-opacity:1;" d="M 25.800781 22.101563 C 25.550781 21 25.199219 20 24.648438 19 C 24.800781 18.75 25.148438 18.648438 25.398438 18.75 C 26.101563 20.050781 26.5 21.5 26.449219 22.949219 C 26.398438 23.648438 26.300781 24.300781 26.101563 24.949219 C 25.949219 24 26 23.050781 25.800781 22.101563 Z "/>
<path style=" stroke:none;fill-rule:nonzero;fill:#895D3D;fill-opacity:1;" d="M 27 26.300781 L 26.699219 26.25 L 26.800781 25.351563 L 26.300781 25.550781 L 26.199219 25.25 L 26.949219 24.949219 C 27 24.949219 27.050781 24.949219 27.101563 24.949219 C 27.148438 25 27.148438 25.050781 27.148438 25.101563 Z "/>
<path style=" stroke:none;fill-rule:nonzero;fill:#895D3D;fill-opacity:1;" d="M 14.851563 26.148438 L 14.75 25 C 14.75 24.949219 14.75 24.898438 14.800781 24.851563 C 14.851563 24.800781 14.898438 24.800781 14.949219 24.851563 L 15.699219 25.148438 L 15.601563 25.398438 L 15.101563 25.199219 L 15.199219 26.101563 Z "/>
<path style=" stroke:none;fill-rule:nonzero;fill:#472B29;fill-opacity:1;" d="M 15.550781 28.351563 C 15.5 28.351563 15.449219 28.300781 15.449219 28.25 L 15.550781 23.949219 C 15.550781 23.898438 15.601563 23.851563 15.648438 23.851563 C 15.699219 23.851563 15.75 23.898438 15.75 23.949219 L 15.648438 28.25 C 15.648438 28.300781 15.601563 28.351563 15.550781 28.351563 Z "/>
<path style=" stroke:none;fill-rule:nonzero;fill:#472B29;fill-opacity:1;" d="M 26.25 28.351563 C 26.199219 28.351563 26.148438 28.300781 26.148438 28.25 L 26.050781 23.949219 C 26.050781 23.898438 26.101563 23.851563 26.148438 23.851563 C 26.199219 23.851563 26.25 23.898438 26.25 23.949219 L 26.351563 28.25 C 26.351563 28.300781 26.300781 28.351563 26.25 28.351563 Z "/>
<path style=" stroke:none;fill-rule:nonzero;fill:#472B29;fill-opacity:1;" d="M 24.449219 44.199219 C 19.351563 44.199219 14.398438 42.148438 10.75 38.25 C 10.699219 38.199219 10.699219 38.148438 10.699219 38.101563 C 10.699219 37.800781 10.75 37.449219 10.851563 37.148438 C 11.050781 36.199219 11.648438 35.398438 12.550781 34.949219 C 12.898438 34.75 13.300781 34.601563 13.699219 34.5 L 17.25 33.199219 C 17.5 33.148438 17.699219 33 17.75 32.75 C 17.800781 32.449219 17.800781 32.101563 17.851563 31.699219 C 17.5 31.449219 17.101563 31.148438 16.800781 30.898438 C 16.148438 30.300781 15.648438 29.550781 15.398438 28.75 C 15.398438 28.550781 15.300781 28.398438 15.199219 28.300781 C 15.101563 28.25 15 28.148438 14.898438 28.101563 C 14.648438 27.949219 14.398438 27.851563 14.25 27.5 C 13.851563 26.648438 13.601563 25.75 13.550781 24.800781 C 13.550781 24.800781 13.550781 24.75 13.550781 24.75 C 13.699219 24.199219 14.199219 23.800781 14.800781 23.800781 L 15 23.800781 C 15.148438 23.800781 15.300781 23.800781 15.398438 23.800781 C 15.351563 23.300781 15.398438 21.898438 15.449219 21.300781 C 15.449219 21.148438 15.449219 21.050781 15.449219 21.050781 C 15.449219 18.699219 17.851563 16.75 20.851563 16.648438 L 21 16.648438 C 24.050781 16.75 26.449219 18.699219 26.449219 21.050781 C 26.449219 21.101563 26.449219 21.199219 26.5 21.449219 C 26.550781 22.148438 26.648438 23.398438 26.601563 23.851563 C 26.648438 23.851563 26.75 23.851563 26.898438 23.851563 L 27.101563 23.851563 C 27.699219 23.851563 28.199219 24.25 28.351563 24.800781 C 28.351563 24.800781 28.351563 24.851563 28.351563 24.851563 C 28.25 25.800781 28.050781 26.699219 27.648438 27.550781 C 27.449219 27.898438 27.199219 28.050781 27 28.148438 C 26.898438 28.199219 26.800781 28.25 26.699219 28.351563 C 26.601563 28.449219 26.5 28.601563 26.5 28.75 C 26.25 29.601563 25.75 30.351563 25.101563 30.949219 C 24.75 31.25 24.351563 31.550781 23.949219 31.851563 C 23.949219 32.199219 24 32.5 24.101563 32.851563 C 24.199219 33.050781 24.351563 33.199219 24.601563 33.25 C 24.75 33.300781 28.351563 34.648438 28.949219 34.898438 L 29.398438 35.101563 C 30.449219 35.398438 30.949219 36.050781 31.199219 37.25 C 31.199219 37.300781 31.398438 40.699219 31.5 42.851563 C 31.5 42.949219 31.449219 43 31.351563 43.050781 C 28.949219 43.800781 26.699219 44.199219 24.449219 44.199219 Z M 11.148438 38.050781 C 16.25 43.398438 23.949219 45.199219 30.898438 42.648438 C 30.800781 40.550781 30.648438 37.25 30.648438 37.25 C 30.449219 36.199219 30.050781 35.699219 29.101563 35.449219 L 28.601563 35.25 C 28 35 24.300781 33.648438 24.25 33.601563 C 23.949219 33.5 23.648438 33.25 23.5 32.949219 C 23.351563 32.550781 23.351563 32.101563 23.351563 31.699219 C 23.351563 31.648438 23.398438 31.601563 23.449219 31.550781 C 23.851563 31.25 24.25 30.949219 24.648438 30.648438 C 25.25 30.101563 25.699219 29.449219 25.949219 28.648438 C 25.949219 28.449219 26.101563 28.199219 26.300781 28 C 26.449219 27.898438 26.550781 27.851563 26.648438 27.800781 C 26.851563 27.699219 27.050781 27.601563 27.148438 27.351563 C 27.5 26.550781 27.75 25.699219 27.800781 24.851563 C 27.648438 24.5 27.351563 24.25 26.949219 24.25 L 26.75 24.25 C 26.648438 24.25 26.550781 24.25 26.5 24.25 C 26.351563 24.25 26.25 24.25 26.148438 24.199219 C 26.050781 24.101563 26.050781 24 26.050781 23.851563 C 26.101563 23.449219 26 22.148438 25.949219 21.5 C 25.949219 21.25 25.898438 21.101563 25.898438 21.101563 C 25.898438 18.949219 23.699219 17.199219 20.851563 17.101563 L 20.75 17.101563 C 17.949219 17.199219 15.75 18.949219 15.75 21.101563 C 15.75 21.101563 15.75 21.199219 15.75 21.351563 C 15.75 21.949219 15.699219 23.449219 15.699219 23.898438 C 15.699219 24.050781 15.699219 24.148438 15.601563 24.199219 C 15.5 24.300781 15.398438 24.25 15.25 24.25 C 15.148438 24.25 15.050781 24.199219 14.898438 24.25 L 14.699219 24.25 C 14.300781 24.25 14 24.5 13.851563 24.851563 C 13.949219 25.699219 14.148438 26.550781 14.5 27.351563 C 14.601563 27.550781 14.800781 27.648438 15 27.800781 C 15.101563 27.851563 15.25 27.949219 15.351563 28 C 15.550781 28.148438 15.699219 28.398438 15.699219 28.648438 C 15.949219 29.398438 16.351563 30.050781 16.949219 30.601563 C 17.300781 30.898438 17.699219 31.199219 18.050781 31.449219 C 18.101563 31.5 18.148438 31.550781 18.148438 31.601563 C 18.148438 32 18.101563 32.398438 18.050781 32.800781 C 17.949219 33.199219 17.601563 33.449219 17.25 33.550781 L 13.699219 34.851563 C 13.300781 34.949219 12.949219 35.101563 12.648438 35.300781 C 11.851563 35.699219 11.351563 36.398438 11.148438 37.25 C 11.199219 37.5 11.148438 37.800781 11.148438 38.050781 Z "/>
<path style=" stroke:none;fill-rule:nonzero;fill:#FDFCEF;fill-opacity:1;" d="M 30.75 24.898438 C 30.75 22 33.851563 19.699219 37.699219 19.699219 C 41.550781 19.699219 44.648438 22 44.648438 24.898438 C 44.648438 27.800781 41.5 30.101563 37.699219 30.101563 L 36.851563 30.101563 C 35.851563 31 34.601563 31.601563 33.300781 31.800781 C 33.101563 31.851563 32.898438 31.699219 32.851563 31.449219 C 32.851563 31.398438 32.851563 31.300781 32.898438 31.25 C 33.199219 30.550781 33.398438 29.75 33.398438 28.949219 C 31.699219 27.949219 30.75 26.449219 30.75 24.898438 "/>
<path style=" stroke:none;fill-rule:nonzero;fill:#472B29;fill-opacity:1;" d="M 33.199219 32.050781 C 32.898438 32.050781 32.601563 31.800781 32.550781 31.5 C 32.550781 31.398438 32.550781 31.25 32.601563 31.148438 C 32.898438 30.5 33.050781 29.800781 33.050781 29.101563 C 31.398438 28.050781 30.449219 26.550781 30.449219 24.949219 C 30.449219 24.949219 30.449219 24.898438 30.449219 24.898438 C 30.449219 21.898438 33.699219 19.449219 37.648438 19.449219 C 41.601563 19.449219 44.851563 21.898438 44.851563 24.898438 C 44.851563 27.898438 41.601563 30.351563 37.648438 30.351563 L 36.898438 30.351563 C 35.898438 31.25 34.601563 31.851563 33.25 32.050781 C 33.25 32.050781 33.199219 32.050781 33.199219 32.050781 Z M 31 24.851563 C 31 26.398438 31.898438 27.800781 33.5 28.75 C 33.601563 28.800781 33.601563 28.898438 33.601563 28.949219 C 33.601563 29.800781 33.398438 30.601563 33.101563 31.351563 C 33.101563 31.351563 33.101563 31.398438 33.101563 31.398438 C 33.101563 31.449219 33.199219 31.550781 33.25 31.5 C 34.550781 31.300781 35.699219 30.75 36.699219 29.898438 C 36.75 29.851563 36.800781 29.851563 36.851563 29.851563 L 37.699219 29.851563 C 41.398438 29.851563 44.398438 27.601563 44.398438 24.898438 C 44.398438 22.148438 41.398438 19.949219 37.699219 19.949219 C 34 19.949219 31 22.148438 31 24.851563 Z "/>
<path style=" stroke:none;fill-rule:nonzero;fill:#F1BC19;fill-opacity:1;" d="M 38.199219 27.398438 C 38.199219 27.648438 38.449219 27.800781 39.050781 27.800781 L 39.050781 28.300781 L 36 28.300781 L 36 27.800781 C 36.550781 27.800781 36.851563 27.648438 36.851563 27.398438 L 36.851563 24.648438 C 36.851563 24.351563 36.550781 24.25 36 24.25 L 36 23.75 L 38.199219 23.75 Z M 38.351563 22.148438 C 38.351563 22.351563 38.25 22.550781 38.101563 22.699219 C 37.949219 22.851563 37.699219 22.949219 37.5 22.949219 C 37.398438 22.949219 37.25 22.949219 37.148438 22.898438 C 37.050781 22.851563 36.949219 22.800781 36.898438 22.75 C 36.800781 22.699219 36.75 22.601563 36.699219 22.5 C 36.550781 22.199219 36.648438 21.851563 36.898438 21.648438 C 37.25 21.351563 37.75 21.351563 38.101563 21.648438 C 38.25 21.75 38.351563 21.949219 38.351563 22.148438 Z "/>
<path style=" stroke:none;fill-rule:nonzero;fill:#472B29;fill-opacity:1;" d="M 39.101563 28.449219 L 36 28.449219 C 35.898438 28.449219 35.851563 28.351563 35.851563 28.300781 L 35.851563 27.800781 C 35.851563 27.699219 35.949219 27.648438 36 27.648438 C 36.199219 27.648438 36.699219 27.648438 36.699219 27.398438 L 36.699219 24.601563 C 36.699219 24.398438 36.25 24.351563 36 24.351563 C 35.898438 24.351563 35.851563 24.25 35.851563 24.148438 L 35.851563 23.648438 C 35.851563 23.550781 35.949219 23.449219 36 23.449219 L 38.199219 23.449219 C 38.300781 23.449219 38.351563 23.550781 38.351563 23.601563 L 38.351563 27.300781 C 38.351563 27.5 38.699219 27.550781 39.050781 27.550781 C 39.148438 27.550781 39.199219 27.648438 39.199219 27.699219 L 39.199219 28.199219 C 39.25 28.398438 39.199219 28.449219 39.101563 28.449219 Z M 36.148438 28.148438 L 38.898438 28.148438 L 38.898438 28 C 38.351563 27.949219 38.050781 27.75 38.050781 27.398438 L 38.050781 23.898438 L 36.199219 23.898438 L 36.199219 24 C 36.75 24.050781 37.050781 24.25 37.050781 24.601563 L 37.050781 27.398438 C 37.050781 27.648438 36.898438 27.949219 36.199219 28 L 36.199219 28.148438 Z M 37.5 23.101563 C 37.351563 23.101563 37.199219 23.050781 37.101563 23 C 37 22.949219 36.898438 22.898438 36.800781 22.800781 C 36.699219 22.699219 36.648438 22.601563 36.550781 22.5 C 36.398438 22.148438 36.449219 21.699219 36.800781 21.449219 C 37.199219 21.101563 37.800781 21.101563 38.199219 21.449219 C 38.398438 21.601563 38.5 21.851563 38.5 22.148438 C 38.5 22.398438 38.398438 22.648438 38.199219 22.851563 C 38 23 37.800781 23.101563 37.5 23.101563 Z M 37.5 21.550781 C 37.351563 21.550781 37.148438 21.601563 37 21.75 C 36.800781 21.898438 36.75 22.199219 36.851563 22.398438 C 36.898438 22.449219 36.949219 22.550781 37 22.601563 C 37.050781 22.648438 37.148438 22.699219 37.199219 22.75 C 37.300781 22.800781 37.398438 22.800781 37.5 22.800781 C 37.699219 22.800781 37.851563 22.75 37.949219 22.601563 C 38.050781 22.5 38.148438 22.351563 38.148438 22.199219 C 38.148438 22.050781 38.101563 21.898438 37.949219 21.800781 C 37.851563 21.601563 37.648438 21.550781 37.5 21.550781 Z "/>
<path style=" stroke:none;fill-rule:nonzero;fill:#512C2B;fill-opacity:1;" d="M 14.75 19.601563 C 14.949219 19.101563 15.550781 19.101563 15.550781 19.101563 C 15.550781 19.101563 15 18.449219 15.199219 18.101563 C 15.398438 17.75 17.300781 15.601563 21.949219 16.101563 C 26.601563 16.601563 27.199219 19.550781 27.199219 19.550781 L 26.25 25 C 26.25 25 24.398438 19.601563 16.851563 20.601563 C 16.851563 20.601563 17.199219 21.300781 15.601563 24 C 15.601563 24.050781 14.75 19.550781 14.75 19.601563 Z "/>
</g>
</svg>
