<?xml version="1.0" encoding="UTF-8"?>
<svg xmlns="http://www.w3.org/2000/svg" xmlns:xlink="http://www.w3.org/1999/xlink" width="64pt" height="64pt" viewBox="0 0 64 64" version="1.1">
<g id="surface1">
<path style=" stroke:none;fill-rule:nonzero;fill:#CED8ED;fill-opacity:1;" d="M 5 9 L 59 9 L 59 19 L 5 19 Z "/>
<path style=" stroke:none;fill-rule:nonzero;fill:#8B8E98;fill-opacity:1;" d="M 5 19 L 59 19 L 59 55 L 5 55 Z "/>
<path style=" stroke:none;fill-rule:nonzero;fill:#8D6C9F;fill-opacity:1;" d="M 55 18 L 51 18 C 50.449219 18 50 18.449219 50 19 C 50 19.550781 50.449219 20 51 20 L 55 20 C 55.550781 20 56 19.550781 56 19 C 56 18.449219 55.550781 18 55 18 Z "/>
<path style=" stroke:none;fill-rule:nonzero;fill:#8D6C9F;fill-opacity:1;" d="M 57 8 L 7 8 C 5.34375 8 4 9.34375 4 11 L 4 53 C 4 54.65625 5.34375 56 7 56 L 57 56 C 58.65625 56 60 54.65625 60 53 L 60 11 C 60 9.34375 58.65625 8 57 8 Z M 58 53 C 58 53.550781 57.550781 54 57 54 L 7 54 C 6.449219 54 6 53.550781 6 53 L 6 20 L 47 20 C 47.550781 20 48 19.550781 48 19 C 48 18.449219 47.550781 18 47 18 L 6 18 L 6 11 C 6 10.449219 6.449219 10 7 10 L 57 10 C 57.550781 10 58 10.449219 58 11 Z "/>
<path style=" stroke:none;fill-rule:nonzero;fill:#8D6C9F;fill-opacity:1;" d="M 20 12 C 19.449219 12 19 12.449219 19 13 L 19 15 C 19 15.550781 19.449219 16 20 16 C 20.550781 16 21 15.550781 21 15 L 21 13 C 21 12.449219 20.550781 12 20 12 Z "/>
<path style=" stroke:none;fill-rule:nonzero;fill:#8D6C9F;fill-opacity:1;" d="M 15 12 C 14.449219 12 14 12.449219 14 13 L 14 15 C 14 15.550781 14.449219 16 15 16 C 15.550781 16 16 15.550781 16 15 L 16 13 C 16 12.449219 15.550781 12 15 12 Z "/>
<path style=" stroke:none;fill-rule:nonzero;fill:#8D6C9F;fill-opacity:1;" d="M 10 12 C 9.449219 12 9 12.449219 9 13 L 9 15 C 9 15.550781 9.449219 16 10 16 C 10.550781 16 11 15.550781 11 15 L 11 13 C 11 12.449219 10.550781 12 10 12 Z "/>
<path style=" stroke:none;fill-rule:nonzero;fill:#8D6C9F;fill-opacity:1;" d="M 35 12 C 34.449219 12 34 12.449219 34 13 L 34 15 C 34 15.550781 34.449219 16 35 16 C 35.550781 16 36 15.550781 36 15 L 36 13 C 36 12.449219 35.550781 12 35 12 Z "/>
<path style=" stroke:none;fill-rule:nonzero;fill:#8D6C9F;fill-opacity:1;" d="M 40 12 C 39.449219 12 39 12.449219 39 13 L 39 15 C 39 15.550781 39.449219 16 40 16 C 40.550781 16 41 15.550781 41 15 L 41 13 C 41 12.449219 40.550781 12 40 12 Z "/>
<path style=" stroke:none;fill-rule:nonzero;fill:#8D6C9F;fill-opacity:1;" d="M 45 12 C 44.449219 12 44 12.449219 44 13 L 44 15 C 44 15.550781 44.449219 16 45 16 C 45.550781 16 46 15.550781 46 15 L 46 13 C 46 12.449219 45.550781 12 45 12 Z "/>
<path style=" stroke:none;fill-rule:nonzero;fill:#8D6C9F;fill-opacity:1;" d="M 51 15 L 51 13 C 51 12.449219 50.550781 12 50 12 C 49.449219 12 49 12.449219 49 13 L 49 15 C 49 15.550781 49.449219 16 50 16 C 50.550781 16 51 15.550781 51 15 Z "/>
<path style=" stroke:none;fill-rule:nonzero;fill:#8D6C9F;fill-opacity:1;" d="M 55 12 C 54.449219 12 54 12.449219 54 13 L 54 15 C 54 15.550781 54.449219 16 55 16 C 55.550781 16 56 15.550781 56 15 L 56 13 C 56 12.449219 55.550781 12 55 12 Z "/>
<path style=" stroke:none;fill-rule:nonzero;fill:#8D6C9F;fill-opacity:1;" d="M 25 12 C 24.449219 12 24 12.449219 24 13 L 24 15 C 24 15.550781 24.449219 16 25 16 C 25.550781 16 26 15.550781 26 15 L 26 13 C 26 12.449219 25.550781 12 25 12 Z "/>
<path style=" stroke:none;fill-rule:nonzero;fill:#8D6C9F;fill-opacity:1;" d="M 30 12 C 29.449219 12 29 12.449219 29 13 L 29 15 C 29 15.550781 29.449219 16 30 16 C 30.550781 16 31 15.550781 31 15 L 31 13 C 31 12.449219 30.550781 12 30 12 Z "/>
<path style=" stroke:none;fill-rule:nonzero;fill:#FAEFDE;fill-opacity:1;" d="M 41.710938 30.289063 C 41.3125 29.949219 40.722656 29.972656 40.351563 30.34375 C 39.984375 30.710938 39.960938 31.304688 40.300781 31.699219 L 45.589844 37 L 40.300781 42.289063 C 40.015625 42.535156 39.890625 42.917969 39.976563 43.285156 C 40.066406 43.648438 40.351563 43.933594 40.714844 44.023438 C 41.082031 44.109375 41.464844 43.984375 41.710938 43.699219 L 47.710938 37.699219 C 48.097656 37.308594 48.097656 36.679688 47.710938 36.289063 Z "/>
<path style=" stroke:none;fill-rule:nonzero;fill:#FAEFDE;fill-opacity:1;" d="M 23.710938 30.289063 C 23.320313 29.902344 22.691406 29.902344 22.300781 30.289063 L 16.300781 36.289063 C 15.914063 36.679688 15.914063 37.308594 16.300781 37.699219 L 22.300781 43.699219 C 22.695313 44.039063 23.289063 44.015625 23.65625 43.648438 C 24.027344 43.277344 24.050781 42.6875 23.710938 42.289063 L 18.410156 37 L 23.699219 31.710938 C 23.890625 31.523438 24 31.269531 24 31.003906 C 24.003906 30.734375 23.898438 30.480469 23.710938 30.289063 Z "/>
<path style=" stroke:none;fill-rule:nonzero;fill:#FAEFDE;fill-opacity:1;" d="M 35.238281 24 C 34.703125 23.867188 34.164063 24.195313 34.03125 24.730469 L 28.03125 48.730469 C 27.894531 49.265625 28.21875 49.808594 28.753906 49.945313 C 29.289063 50.082031 29.835938 49.753906 29.96875 49.21875 L 35.96875 25.21875 C 36.035156 24.960938 35.996094 24.6875 35.859375 24.457031 C 35.722656 24.226563 35.5 24.0625 35.238281 24 Z "/>
</g>
</svg>
