<?xml version="1.0" encoding="UTF-8"?>
<svg xmlns="http://www.w3.org/2000/svg" xmlns:xlink="http://www.w3.org/1999/xlink" width="48pt" height="48pt" viewBox="0 0 48 48" version="1.1">
<g id="surface1">
<path style=" stroke:none;fill-rule:nonzero;fill:#42A5F5;fill-opacity:1;" d="M 4 13 L 13 4 L 44 35 L 35 44 Z "/>
<path style=" stroke:none;fill-rule:nonzero;fill:#1565C0;fill-opacity:1;" d="M 16.175781 16.179688 L 14.761719 14.765625 L 19.261719 10.265625 L 20.675781 11.679688 Z "/>
<path style=" stroke:none;fill-rule:nonzero;fill:#1565C0;fill-opacity:1;" d="M 33.324219 24.324219 L 34.738281 25.738281 L 32.238281 28.238281 L 30.824219 26.824219 Z "/>
<path style=" stroke:none;fill-rule:nonzero;fill:#1565C0;fill-opacity:1;" d="M 16.292969 7.292969 L 17.707031 8.707031 L 15.207031 11.207031 L 13.792969 9.792969 Z "/>
<path style=" stroke:none;fill-rule:nonzero;fill:#1565C0;fill-opacity:1;" d="M 39.351563 30.351563 L 40.769531 31.765625 L 38.265625 34.265625 L 36.851563 32.851563 Z "/>
<path style=" stroke:none;fill-rule:nonzero;fill:#1565C0;fill-opacity:1;" d="M 22.292969 13.292969 L 23.707031 14.707031 L 21.207031 17.207031 L 19.792969 15.792969 Z "/>
<path style=" stroke:none;fill-rule:nonzero;fill:#1565C0;fill-opacity:1;" d="M 31.824219 31.824219 L 36.324219 27.324219 L 37.738281 28.738281 L 33.238281 33.238281 Z "/>
<path style=" stroke:none;fill-rule:nonzero;fill:#E57373;fill-opacity:1;" d="M 42.582031 9.066406 L 38.933594 5.417969 C 38.378906 4.859375 37.472656 4.859375 36.917969 5.417969 L 35.199219 7.136719 L 40.863281 12.800781 L 42.582031 11.082031 C 43.140625 10.527344 43.140625 9.625 42.582031 9.066406 "/>
<path style=" stroke:none;fill-rule:nonzero;fill:#FF9800;fill-opacity:1;" d="M 6.90625 35.425781 L 32.367188 9.964844 L 38.03125 15.632813 L 12.570313 41.09375 Z "/>
<path style=" stroke:none;fill-rule:nonzero;fill:#B0BEC5;fill-opacity:1;" d="M 40.863281 12.800781 L 38.03125 15.632813 L 32.363281 9.972656 L 35.195313 7.136719 Z "/>
<path style=" stroke:none;fill-rule:nonzero;fill:#FFC107;fill-opacity:1;" d="M 6.90625 35.429688 L 5 43 L 12.570313 41.09375 Z "/>
<path style=" stroke:none;fill-rule:nonzero;fill:#37474F;fill-opacity:1;" d="M 5.964844 39.171875 L 5 43 L 8.828125 42.035156 Z "/>
</g>
</svg>
