<?xml version="1.0" encoding="UTF-8"?>
<svg xmlns="http://www.w3.org/2000/svg" xmlns:xlink="http://www.w3.org/1999/xlink" width="64pt" height="64pt" viewBox="0 0 64 64" version="1.1">
<g id="surface1">
<path style=" stroke:none;fill-rule:nonzero;fill:#ACE3FF;fill-opacity:1;" d="M 5 19 L 59 19 L 59 55 L 5 55 Z "/>
<path style=" stroke:none;fill-rule:nonzero;fill:#E3F2FF;fill-opacity:1;" d="M 39.761719 55 L 59 35.761719 L 59 19.078125 L 56.429688 19.078125 L 20.511719 55 Z "/>
<path style=" stroke:none;fill-rule:nonzero;fill:#E3F2FF;fill-opacity:1;" d="M 8.898438 55 L 16.601563 55 L 52.519531 19.078125 L 44.820313 19.078125 Z "/>
<path style=" stroke:none;fill-rule:nonzero;fill:#E3F2FF;fill-opacity:1;" d="M 40.398438 19.078125 L 5.070313 54.410156 L 5 54.429688 L 5 53.191406 L 39.121094 19.078125 Z "/>
<path style=" stroke:none;fill-rule:nonzero;fill:#F9DD8F;fill-opacity:1;" d="M 13 25 L 51 25 L 51 29 L 13 29 Z "/>
<path style=" stroke:none;fill-rule:nonzero;fill:#72CAAF;fill-opacity:1;" d="M 35 35 L 51 35 L 51 47 L 35 47 Z "/>
<path style=" stroke:none;fill-rule:nonzero;fill:#C2CDE7;fill-opacity:1;" d="M 7.195313 9 L 56.804688 9 C 58.015625 9 59 9.984375 59 11.195313 L 59 19 L 5 19 L 5 11.195313 C 5 9.984375 5.984375 9 7.195313 9 Z "/>
<path style=" stroke:none;fill-rule:nonzero;fill:#8D6C9F;fill-opacity:1;" d="M 55 18 L 51 18 C 50.449219 18 50 18.449219 50 19 C 50 19.550781 50.449219 20 51 20 L 55 20 C 55.550781 20 56 19.550781 56 19 C 56 18.449219 55.550781 18 55 18 Z "/>
<path style=" stroke:none;fill-rule:nonzero;fill:#8D6C9F;fill-opacity:1;" d="M 57 8 L 7 8 C 5.34375 8 4 9.34375 4 11 L 4 53 C 4 54.65625 5.34375 56 7 56 L 57 56 C 58.65625 56 60 54.65625 60 53 L 60 11 C 60 9.34375 58.65625 8 57 8 Z M 58 53 C 58 53.550781 57.550781 54 57 54 L 7 54 C 6.449219 54 6 53.550781 6 53 L 6 20 L 47 20 C 47.550781 20 48 19.550781 48 19 C 48 18.449219 47.550781 18 47 18 L 6 18 L 6 11 C 6 10.449219 6.449219 10 7 10 L 57 10 C 57.550781 10 58 10.449219 58 11 Z "/>
<path style=" stroke:none;fill-rule:nonzero;fill:#8D6C9F;fill-opacity:1;" d="M 20 12 C 19.449219 12 19 12.449219 19 13 L 19 15 C 19 15.550781 19.449219 16 20 16 C 20.550781 16 21 15.550781 21 15 L 21 13 C 21 12.449219 20.550781 12 20 12 Z "/>
<path style=" stroke:none;fill-rule:nonzero;fill:#8D6C9F;fill-opacity:1;" d="M 15 12 C 14.449219 12 14 12.449219 14 13 L 14 15 C 14 15.550781 14.449219 16 15 16 C 15.550781 16 16 15.550781 16 15 L 16 13 C 16 12.449219 15.550781 12 15 12 Z "/>
<path style=" stroke:none;fill-rule:nonzero;fill:#8D6C9F;fill-opacity:1;" d="M 10 12 C 9.449219 12 9 12.449219 9 13 L 9 15 C 9 15.550781 9.449219 16 10 16 C 10.550781 16 11 15.550781 11 15 L 11 13 C 11 12.449219 10.550781 12 10 12 Z "/>
<path style=" stroke:none;fill-rule:nonzero;fill:#8D6C9F;fill-opacity:1;" d="M 35 12 C 34.449219 12 34 12.449219 34 13 L 34 15 C 34 15.550781 34.449219 16 35 16 C 35.550781 16 36 15.550781 36 15 L 36 13 C 36 12.449219 35.550781 12 35 12 Z "/>
<path style=" stroke:none;fill-rule:nonzero;fill:#8D6C9F;fill-opacity:1;" d="M 40 12 C 39.449219 12 39 12.449219 39 13 L 39 15 C 39 15.550781 39.449219 16 40 16 C 40.550781 16 41 15.550781 41 15 L 41 13 C 41 12.449219 40.550781 12 40 12 Z "/>
<path style=" stroke:none;fill-rule:nonzero;fill:#8D6C9F;fill-opacity:1;" d="M 45 12 C 44.449219 12 44 12.449219 44 13 L 44 15 C 44 15.550781 44.449219 16 45 16 C 45.550781 16 46 15.550781 46 15 L 46 13 C 46 12.449219 45.550781 12 45 12 Z "/>
<path style=" stroke:none;fill-rule:nonzero;fill:#8D6C9F;fill-opacity:1;" d="M 50 16 C 50.550781 16 51 15.550781 51 15 L 51 13 C 51 12.449219 50.550781 12 50 12 C 49.449219 12 49 12.449219 49 13 L 49 15 C 49 15.550781 49.449219 16 50 16 Z "/>
<path style=" stroke:none;fill-rule:nonzero;fill:#8D6C9F;fill-opacity:1;" d="M 55 12 C 54.449219 12 54 12.449219 54 13 L 54 15 C 54 15.550781 54.449219 16 55 16 C 55.550781 16 56 15.550781 56 15 L 56 13 C 56 12.449219 55.550781 12 55 12 Z "/>
<path style=" stroke:none;fill-rule:nonzero;fill:#8D6C9F;fill-opacity:1;" d="M 25 12 C 24.449219 12 24 12.449219 24 13 L 24 15 C 24 15.550781 24.449219 16 25 16 C 25.550781 16 26 15.550781 26 15 L 26 13 C 26 12.449219 25.550781 12 25 12 Z "/>
<path style=" stroke:none;fill-rule:nonzero;fill:#8D6C9F;fill-opacity:1;" d="M 30 12 C 29.449219 12 29 12.449219 29 13 L 29 15 C 29 15.550781 29.449219 16 30 16 C 30.550781 16 31 15.550781 31 15 L 31 13 C 31 12.449219 30.550781 12 30 12 Z "/>
<path style=" stroke:none;fill-rule:nonzero;fill:#8D6C9F;fill-opacity:1;" d="M 51 24 L 13 24 C 12.449219 24 12 24.449219 12 25 L 12 29 C 12 29.550781 12.449219 30 13 30 L 51 30 C 51.550781 30 52 29.550781 52 29 L 52 25 C 52 24.449219 51.550781 24 51 24 Z M 50 28 L 14 28 L 14 26 L 50 26 Z "/>
<path style=" stroke:none;fill-rule:nonzero;fill:#8D6C9F;fill-opacity:1;" d="M 51 34 L 35 34 C 34.449219 34 34 34.449219 34 35 L 34 47 C 34 47.550781 34.449219 48 35 48 L 51 48 C 51.550781 48 52 47.550781 52 47 L 52 35 C 52 34.449219 51.550781 34 51 34 Z M 50 46 L 36 46 L 36 36 L 50 36 Z "/>
<path style=" stroke:none;fill-rule:nonzero;fill:#F9DD8F;fill-opacity:1;" d="M 28 39 L 14 39 C 13.449219 39 13 38.550781 13 38 L 13 36 C 13 35.449219 13.449219 35 14 35 L 28 35 C 28.550781 35 29 35.449219 29 36 L 29 38 C 29 38.550781 28.550781 39 28 39 Z "/>
<path style=" stroke:none;fill-rule:nonzero;fill:#F9DD8F;fill-opacity:1;" d="M 28 47 L 14 47 C 13.449219 47 13 46.550781 13 46 L 13 44 C 13 43.449219 13.449219 43 14 43 L 28 43 C 28.550781 43 29 43.449219 29 44 L 29 46 C 29 46.550781 28.550781 47 28 47 Z "/>
<path style=" stroke:none;fill-rule:nonzero;fill:#8D6C9F;fill-opacity:1;" d="M 28 40 L 14 40 C 12.898438 40 12 39.101563 12 38 L 12 36 C 12 34.898438 12.898438 34 14 34 L 28 34 C 29.101563 34 30 34.898438 30 36 L 30 38 C 30 39.101563 29.101563 40 28 40 Z M 14 36 L 14 38 L 28 38 L 28 36 Z "/>
<path style=" stroke:none;fill-rule:nonzero;fill:#8D6C9F;fill-opacity:1;" d="M 28 48 L 14 48 C 12.898438 48 12 47.101563 12 46 L 12 44 C 12 42.898438 12.898438 42 14 42 L 28 42 C 29.101563 42 30 42.898438 30 44 L 30 46 C 30 47.101563 29.101563 48 28 48 Z M 14 44 L 14 46 L 28 46 L 28 44 Z "/>
</g>
</svg>
