<?xml version="1.0" encoding="UTF-8"?>
<svg xmlns="http://www.w3.org/2000/svg" xmlns:xlink="http://www.w3.org/1999/xlink" width="50pt" height="50pt" viewBox="0 0 50 50" version="1.1">
<g id="surface1">
<path style=" stroke:none;fill-rule:nonzero;fill:#F1BC19;fill-opacity:1;" d="M 39 6.5 C 39 6.777344 38.777344 7 38.5 7 C 38.222656 7 38 6.777344 38 6.5 C 38 6.222656 38.222656 6 38.5 6 C 38.777344 6 39 6.222656 39 6.5 Z "/>
<path style=" stroke:none;fill-rule:nonzero;fill:#E4E4F9;fill-opacity:1;" d="M 43.5 25 C 43.5 35.21875 35.21875 43.5 25 43.5 C 14.78125 43.5 6.5 35.21875 6.5 25 C 6.5 14.78125 14.78125 6.5 25 6.5 C 35.21875 6.5 43.5 14.78125 43.5 25 Z "/>
<path style=" stroke:none;fill-rule:nonzero;fill:#F1BC19;fill-opacity:1;" d="M 43.5 7.5 C 43.5 8.605469 42.605469 9.5 41.5 9.5 C 40.394531 9.5 39.5 8.605469 39.5 7.5 C 39.5 6.394531 40.394531 5.5 41.5 5.5 C 42.605469 5.5 43.5 6.394531 43.5 7.5 Z "/>
<path style=" stroke:none;fill-rule:nonzero;fill:#8889B9;fill-opacity:1;" d="M 44.5 12 C 44.5 12.550781 44.050781 13 43.5 13 C 42.949219 13 42.5 12.550781 42.5 12 C 42.5 11.449219 42.949219 11 43.5 11 C 44.050781 11 44.5 11.449219 44.5 12 Z "/>
<path style=" stroke:none;fill-rule:nonzero;fill:#FBCD59;fill-opacity:1;" d="M 41.5 38 C 41.5 38.550781 41.050781 39 40.5 39 C 39.949219 39 39.5 38.550781 39.5 38 C 39.5 37.449219 39.949219 37 40.5 37 C 41.050781 37 41.5 37.449219 41.5 38 Z "/>
<path style=" stroke:none;fill-rule:nonzero;fill:#FBCD59;fill-opacity:1;" d="M 9.5 31.5 C 9.5 32.605469 8.605469 33.5 7.5 33.5 C 6.394531 33.5 5.5 32.605469 5.5 31.5 C 5.5 30.394531 6.394531 29.5 7.5 29.5 C 8.605469 29.5 9.5 30.394531 9.5 31.5 Z "/>
<path style=" stroke:none;fill-rule:nonzero;fill:#8889B9;fill-opacity:1;" d="M 13.5 43.5 C 13.5 44.050781 13.050781 44.5 12.5 44.5 C 11.949219 44.5 11.5 44.050781 11.5 43.5 C 11.5 42.949219 11.949219 42.5 12.5 42.5 C 13.050781 42.5 13.5 42.949219 13.5 43.5 Z "/>
<path style=" stroke:none;fill-rule:nonzero;fill:#FFFFFF;fill-opacity:1;" d="M 10.5 25.75 C 10.5 26.441406 9.941406 27 9.25 27 C 8.558594 27 8 26.441406 8 25.75 C 8 25.058594 8.558594 24.5 9.25 24.5 C 9.941406 24.5 10.5 25.058594 10.5 25.75 Z "/>
<path style=" stroke:none;fill-rule:nonzero;fill:#FFFFFF;fill-opacity:1;" d="M 40.5 16.75 C 40.5 17.164063 40.164063 17.5 39.75 17.5 C 39.335938 17.5 39 17.164063 39 16.75 C 39 16.335938 39.335938 16 39.75 16 C 40.164063 16 40.5 16.335938 40.5 16.75 Z "/>
<path style=" stroke:none;fill-rule:nonzero;fill:#FEFDEF;fill-opacity:1;" d="M 17.5 36.148438 C 15.488281 36.148438 13.851563 34.511719 13.851563 32.5 L 13.851563 17.5 C 13.851563 15.488281 15.488281 13.851563 17.5 13.851563 L 32.5 13.851563 C 34.511719 13.851563 36.148438 15.488281 36.148438 17.5 L 36.148438 32.5 C 36.148438 34.511719 34.511719 36.148438 32.5 36.148438 Z "/>
<path style=" stroke:none;fill-rule:nonzero;fill:#472B29;fill-opacity:1;" d="M 32.5 14.199219 C 34.320313 14.199219 35.800781 15.679688 35.800781 17.5 L 35.800781 32.5 C 35.800781 34.320313 34.320313 35.800781 32.5 35.800781 L 17.5 35.800781 C 15.679688 35.800781 14.199219 34.320313 14.199219 32.5 L 14.199219 17.5 C 14.199219 15.679688 15.679688 14.199219 17.5 14.199219 L 32.5 14.199219 M 32.5 13.5 L 17.5 13.5 C 15.300781 13.5 13.5 15.300781 13.5 17.5 L 13.5 32.5 C 13.5 34.699219 15.300781 36.5 17.5 36.5 L 32.5 36.5 C 34.699219 36.5 36.5 34.699219 36.5 32.5 L 36.5 17.5 C 36.5 15.300781 34.699219 13.5 32.5 13.5 Z "/>
<path style=" stroke:none;fill-rule:nonzero;fill:#472B29;fill-opacity:1;" d="M 32.46875 17.46875 L 30.53125 17.46875 C 30.394531 17.46875 30.28125 17.355469 30.28125 17.21875 C 30.28125 17.082031 30.394531 16.96875 30.53125 16.96875 L 32.46875 16.96875 C 32.605469 16.96875 32.71875 17.082031 32.71875 17.21875 C 32.71875 17.355469 32.605469 17.46875 32.46875 17.46875 Z "/>
<path style=" stroke:none;fill-rule:nonzero;fill:#472B29;fill-opacity:1;" d="M 17.5 33.46875 L 14.03125 33.46875 C 13.894531 33.46875 13.78125 33.355469 13.78125 33.21875 C 13.78125 33.082031 13.894531 32.96875 14.03125 32.96875 L 17.5 32.96875 C 17.636719 32.96875 17.75 33.082031 17.75 33.21875 C 17.75 33.355469 17.640625 33.46875 17.5 33.46875 Z "/>
<path style=" stroke:none;fill-rule:nonzero;fill:#472B29;fill-opacity:1;" d="M 36.003906 33.46875 L 19.035156 33.46875 C 18.898438 33.46875 18.785156 33.355469 18.785156 33.21875 C 18.785156 33.082031 18.898438 32.96875 19.035156 32.96875 L 36.003906 32.96875 C 36.140625 32.96875 36.253906 33.082031 36.253906 33.21875 C 36.253906 33.355469 36.140625 33.46875 36.003906 33.46875 Z "/>
<path style=" stroke:none;fill-rule:nonzero;fill:#472B29;fill-opacity:1;" d="M 28.976563 17.46875 L 14.007813 17.46875 C 13.867188 17.46875 13.757813 17.355469 13.757813 17.21875 C 13.757813 17.082031 13.867188 16.96875 14.007813 16.96875 L 28.976563 16.96875 C 29.113281 16.96875 29.226563 17.082031 29.226563 17.21875 C 29.226563 17.355469 29.113281 17.46875 28.976563 17.46875 Z "/>
<path style=" stroke:none;fill-rule:nonzero;fill:#472B29;fill-opacity:1;" d="M 21 20.46875 L 16.003906 20.46875 C 15.867188 20.46875 15.753906 20.355469 15.753906 20.21875 C 15.753906 20.082031 15.867188 19.96875 16.003906 19.96875 L 21 19.96875 C 21.136719 19.96875 21.25 20.082031 21.25 20.21875 C 21.25 20.355469 21.136719 20.46875 21 20.46875 Z "/>
<path style=" stroke:none;fill-rule:nonzero;fill:#472B29;fill-opacity:1;" d="M 23.25 31.75 C 23.113281 31.75 23 31.636719 23 31.5 L 23 18.972656 C 23 18.835938 23.113281 18.722656 23.25 18.722656 C 23.386719 18.722656 23.5 18.835938 23.5 18.972656 L 23.5 31.5 C 23.5 31.636719 23.386719 31.75 23.25 31.75 Z "/>
<path style=" stroke:none;fill-rule:nonzero;fill:#472B29;fill-opacity:1;" d="M 21 22.96875 L 16.003906 22.96875 C 15.867188 22.96875 15.753906 22.855469 15.753906 22.71875 C 15.753906 22.582031 15.867188 22.46875 16.003906 22.46875 L 21 22.46875 C 21.136719 22.46875 21.25 22.582031 21.25 22.71875 C 21.25 22.855469 21.136719 22.96875 21 22.96875 Z "/>
<path style=" stroke:none;fill-rule:nonzero;fill:#472B29;fill-opacity:1;" d="M 21 25.46875 L 16.003906 25.46875 C 15.867188 25.46875 15.753906 25.355469 15.753906 25.21875 C 15.753906 25.082031 15.867188 24.96875 16.003906 24.96875 L 21 24.96875 C 21.136719 24.96875 21.25 25.082031 21.25 25.21875 C 21.25 25.355469 21.136719 25.46875 21 25.46875 Z "/>
<path style=" stroke:none;fill-rule:nonzero;fill:#472B29;fill-opacity:1;" d="M 21 27.96875 L 16.003906 27.96875 C 15.867188 27.96875 15.753906 27.855469 15.753906 27.71875 C 15.753906 27.582031 15.867188 27.46875 16.003906 27.46875 L 21 27.46875 C 21.136719 27.46875 21.25 27.582031 21.25 27.71875 C 21.25 27.855469 21.136719 27.96875 21 27.96875 Z "/>
<path style=" stroke:none;fill-rule:nonzero;fill:#472B29;fill-opacity:1;" d="M 21 30.46875 L 16.003906 30.46875 C 15.867188 30.46875 15.753906 30.355469 15.753906 30.21875 C 15.753906 30.082031 15.867188 29.96875 16.003906 29.96875 L 21 29.96875 C 21.136719 29.96875 21.25 30.082031 21.25 30.21875 C 21.25 30.355469 21.136719 30.46875 21 30.46875 Z "/>
<path style=" stroke:none;fill-rule:nonzero;fill:#472B29;fill-opacity:1;" d="M 28 27.96875 L 25.003906 27.96875 C 24.867188 27.96875 24.753906 27.855469 24.753906 27.71875 C 24.753906 27.582031 24.867188 27.46875 25.003906 27.46875 L 28 27.46875 C 28.136719 27.46875 28.25 27.582031 28.25 27.71875 C 28.25 27.855469 28.136719 27.96875 28 27.96875 Z "/>
<path style=" stroke:none;fill-rule:nonzero;fill:#472B29;fill-opacity:1;" d="M 28 30.46875 L 25.003906 30.46875 C 24.867188 30.46875 24.753906 30.355469 24.753906 30.21875 C 24.753906 30.082031 24.867188 29.96875 25.003906 29.96875 L 28 29.96875 C 28.136719 29.96875 28.25 30.082031 28.25 30.21875 C 28.25 30.355469 28.136719 30.46875 28 30.46875 Z "/>
<path style=" stroke:none;fill-rule:nonzero;fill:#472B29;fill-opacity:1;" d="M 34.96875 17.46875 L 33.96875 17.46875 C 33.832031 17.46875 33.71875 17.355469 33.71875 17.21875 C 33.71875 17.082031 33.832031 16.96875 33.96875 16.96875 L 34.96875 16.96875 C 35.105469 16.96875 35.21875 17.082031 35.21875 17.21875 C 35.21875 17.355469 35.105469 17.46875 34.96875 17.46875 Z "/>
<path style=" stroke:none;fill-rule:nonzero;fill:#EE3E54;fill-opacity:1;" d="M 18.289063 15.664063 C 18.289063 16.015625 18.003906 16.296875 17.65625 16.296875 C 17.308594 16.296875 17.023438 16.015625 17.023438 15.664063 C 17.023438 15.316406 17.308594 15.03125 17.65625 15.03125 C 18.003906 15.03125 18.289063 15.316406 18.289063 15.664063 Z "/>
<path style=" stroke:none;fill-rule:nonzero;fill:#472B29;fill-opacity:1;" d="M 17.65625 16.445313 C 17.226563 16.445313 16.875 16.09375 16.875 15.664063 C 16.875 15.234375 17.226563 14.882813 17.65625 14.882813 C 18.085938 14.882813 18.4375 15.234375 18.4375 15.664063 C 18.4375 16.09375 18.085938 16.445313 17.65625 16.445313 Z M 17.65625 15.183594 C 17.390625 15.183594 17.175781 15.398438 17.175781 15.664063 C 17.175781 15.929688 17.390625 16.148438 17.65625 16.148438 C 17.921875 16.148438 18.140625 15.929688 18.140625 15.664063 C 18.140625 15.398438 17.921875 15.183594 17.65625 15.183594 Z "/>
<path style=" stroke:none;fill-rule:nonzero;fill:#F1BC19;fill-opacity:1;" d="M 20.503906 15.664063 C 20.503906 16.015625 20.21875 16.296875 19.871094 16.296875 C 19.519531 16.296875 19.238281 16.015625 19.238281 15.664063 C 19.238281 15.316406 19.519531 15.03125 19.871094 15.03125 C 20.21875 15.03125 20.503906 15.316406 20.503906 15.664063 Z "/>
<path style=" stroke:none;fill-rule:nonzero;fill:#472B29;fill-opacity:1;" d="M 19.871094 16.445313 C 19.4375 16.445313 19.089844 16.09375 19.089844 15.664063 C 19.089844 15.234375 19.4375 14.882813 19.871094 14.882813 C 20.300781 14.882813 20.652344 15.234375 20.652344 15.664063 C 20.652344 16.09375 20.300781 16.445313 19.871094 16.445313 Z M 19.871094 15.183594 C 19.605469 15.183594 19.386719 15.398438 19.386719 15.664063 C 19.386719 15.929688 19.605469 16.148438 19.871094 16.148438 C 20.136719 16.148438 20.351563 15.929688 20.351563 15.664063 C 20.351563 15.398438 20.136719 15.183594 19.871094 15.183594 Z "/>
<path style=" stroke:none;fill-rule:nonzero;fill:#88AE45;fill-opacity:1;" d="M 22.714844 15.664063 C 22.714844 16.015625 22.433594 16.296875 22.082031 16.296875 C 21.734375 16.296875 21.449219 16.015625 21.449219 15.664063 C 21.449219 15.316406 21.734375 15.03125 22.082031 15.03125 C 22.433594 15.03125 22.714844 15.316406 22.714844 15.664063 Z "/>
<path style=" stroke:none;fill-rule:nonzero;fill:#472B29;fill-opacity:1;" d="M 22.082031 16.445313 C 21.652344 16.445313 21.300781 16.09375 21.300781 15.664063 C 21.300781 15.234375 21.652344 14.882813 22.082031 14.882813 C 22.515625 14.882813 22.863281 15.234375 22.863281 15.664063 C 22.863281 16.09375 22.515625 16.445313 22.082031 16.445313 Z M 22.082031 15.183594 C 21.816406 15.183594 21.601563 15.398438 21.601563 15.664063 C 21.601563 15.929688 21.816406 16.148438 22.082031 16.148438 C 22.347656 16.148438 22.566406 15.929688 22.566406 15.664063 C 22.566406 15.398438 22.347656 15.183594 22.082031 15.183594 Z "/>
<path style=" stroke:none;fill-rule:nonzero;fill:#FEF6AA;fill-opacity:1;" d="M 25.25 19.75 L 34.25 19.75 L 34.25 24.75 L 25.25 24.75 Z "/>
<path style=" stroke:none;fill-rule:nonzero;fill:#FEF6AA;fill-opacity:1;" d="M 25.832031 24.75 L 25.25 24.75 L 25.25 19.75 L 34.25 19.75 L 34.25 24.75 L 28.417969 24.75 "/>
<path style=" stroke:none;fill-rule:nonzero;fill:#472B29;fill-opacity:1;" d="M 34.25 25 L 28.417969 25 C 28.277344 25 28.167969 24.886719 28.167969 24.75 C 28.167969 24.613281 28.277344 24.5 28.417969 24.5 L 34 24.5 L 34 20 L 25.5 20 L 25.5 24.5 L 25.832031 24.5 C 25.972656 24.5 26.082031 24.613281 26.082031 24.75 C 26.082031 24.886719 25.972656 25 25.832031 25 L 25.25 25 C 25.113281 25 25 24.886719 25 24.75 L 25 19.75 C 25 19.613281 25.113281 19.5 25.25 19.5 L 34.25 19.5 C 34.386719 19.5 34.5 19.613281 34.5 19.75 L 34.5 24.75 C 34.5 24.886719 34.386719 25 34.25 25 Z "/>
<path style=" stroke:none;fill-rule:nonzero;fill:#472B29;fill-opacity:1;" d="M 27.53125 25 L 26.75 25 C 26.613281 25 26.5 24.886719 26.5 24.75 C 26.5 24.613281 26.613281 24.5 26.75 24.5 L 27.53125 24.5 C 27.667969 24.5 27.78125 24.613281 27.78125 24.75 C 27.78125 24.886719 27.667969 25 27.53125 25 Z "/>
<path style=" stroke:none;fill-rule:nonzero;fill:#FEF6AA;fill-opacity:1;" d="M 29.75 26.25 L 34.25 26.25 L 34.25 31.25 L 29.75 31.25 Z "/>
<path style=" stroke:none;fill-rule:nonzero;fill:#472B29;fill-opacity:1;" d="M 34.25 31.5 L 29.75 31.5 C 29.613281 31.5 29.5 31.386719 29.5 31.25 L 29.5 26.25 C 29.5 26.113281 29.613281 26 29.75 26 L 34.25 26 C 34.386719 26 34.5 26.113281 34.5 26.25 L 34.5 31.25 C 34.5 31.386719 34.386719 31.5 34.25 31.5 Z M 30 31 L 34 31 L 34 26.5 L 30 26.5 Z "/>
</g>
</svg>
